<svg width="534" height="456" viewBox="0 0 534 456" fill="none" xmlns="http://www.w3.org/2000/svg">
<mask id="mask0_3_38" style="mask-type:alpha" maskUnits="userSpaceOnUse" x="242" y="34" width="74" height="207">
<path d="M242.715 106.936C242.715 66.6931 275.338 34.0703 315.58 34.0703V167.718C315.58 207.961 282.958 240.583 242.715 240.583V106.936Z" fill="#F2C0CA"/>
<path d="M242.715 106.936C242.715 66.6931 275.338 34.0703 315.58 34.0703V167.718C315.58 207.961 282.958 240.583 242.715 240.583V106.936Z" fill="#F2C0CA"/>
<path d="M242.715 106.936C242.715 66.6931 275.338 34.0703 315.58 34.0703V167.718C315.58 207.961 282.958 240.583 242.715 240.583V106.936Z" fill="#F2C0CA"/>
</mask>
<g mask="url(#mask0_3_38)">
<path d="M315.58 106.936C315.58 66.6931 282.958 34.0703 242.715 34.0703V167.718C242.715 207.961 275.338 240.583 315.58 240.583V106.936Z" fill="#F2C0CA"/>
<path d="M315.58 106.936C315.58 66.6931 282.958 34.0703 242.715 34.0703V167.718C242.715 207.961 275.338 240.583 315.58 240.583V106.936Z" fill="#F2C0CA"/>
<path d="M315.58 106.936C315.58 66.6931 282.958 34.0703 242.715 34.0703V167.718C242.715 207.961 275.338 240.583 315.58 240.583V106.936Z" fill="#F2C0CA"/>
</g>
<mask id="mask1_3_38" style="mask-type:alpha" maskUnits="userSpaceOnUse" x="261" y="103" width="198" height="139">
<path d="M355.809 125.303C384.265 96.8473 430.4 96.8473 458.856 125.303L364.353 219.806C335.897 248.262 289.761 248.262 261.306 219.806L355.809 125.303Z" fill="#BF90AF"/>
<path d="M355.809 125.303C384.265 96.8473 430.4 96.8473 458.856 125.303L364.353 219.806C335.897 248.262 289.761 248.262 261.306 219.806L355.809 125.303Z" fill="#BF90AF"/>
<path d="M355.809 125.303C384.265 96.8473 430.4 96.8473 458.856 125.303L364.353 219.806C335.897 248.262 289.761 248.262 261.306 219.806L355.809 125.303Z" fill="#BF90AF"/>
</mask>
<g mask="url(#mask1_3_38)">
<path d="M407.332 176.826C435.788 148.371 435.788 102.235 407.332 73.7794L312.829 168.283C284.373 196.738 284.373 242.874 312.829 271.33L407.332 176.826Z" fill="#BF90AF"/>
<path d="M407.332 176.826C435.788 148.371 435.788 102.235 407.332 73.7794L312.829 168.283C284.373 196.738 284.373 242.874 312.829 271.33L407.332 176.826Z" fill="#BF90AF"/>
<path d="M407.332 176.826C435.788 148.371 435.788 102.235 407.332 73.7794L312.829 168.283C284.373 196.738 284.373 242.874 312.829 271.33L407.332 176.826Z" fill="#BF90AF"/>
</g>
<mask id="mask2_3_38" style="mask-type:alpha" maskUnits="userSpaceOnUse" x="280" y="159" width="220" height="103">
<path d="M404.386 165.211C441.565 149.811 484.189 167.466 499.589 204.646L376.114 255.79C338.935 271.19 296.312 253.535 280.911 216.356L404.386 165.211Z" fill="#A17AA4"/>
<path d="M404.386 165.211C441.565 149.811 484.189 167.466 499.589 204.646L376.114 255.79C338.935 271.19 296.312 253.535 280.911 216.356L404.386 165.211Z" fill="#A17AA4"/>
<path d="M404.386 165.211C441.565 149.811 484.189 167.466 499.589 204.646L376.114 255.79C338.935 271.19 296.312 253.535 280.911 216.356L404.386 165.211Z" fill="#A17AA4"/>
</mask>
<g mask="url(#mask2_3_38)">
<path d="M432.27 232.53C469.449 217.13 487.105 174.506 471.705 137.327L348.23 188.472C311.051 203.872 293.396 246.496 308.796 283.675L432.27 232.53Z" fill="#A17AA4"/>
<path d="M432.27 232.53C469.449 217.13 487.105 174.506 471.705 137.327L348.23 188.472C311.051 203.872 293.396 246.496 308.796 283.675L432.27 232.53Z" fill="#A17AA4"/>
<path d="M432.27 232.53C469.449 217.13 487.105 174.506 471.705 137.327L348.23 188.472C311.051 203.872 293.396 246.496 308.796 283.675L432.27 232.53Z" fill="#A17AA4"/>
</g>
<mask id="mask3_3_38" style="mask-type:alpha" maskUnits="userSpaceOnUse" x="301" y="220" width="207" height="74">
<path d="M434.691 220.962C474.934 220.962 507.557 253.585 507.557 293.827H373.909C333.666 293.827 301.044 261.204 301.044 220.962H434.691Z" fill="#806797"/>
<path d="M434.691 220.962C474.934 220.962 507.557 253.585 507.557 293.827H373.909C333.666 293.827 301.044 261.204 301.044 220.962H434.691Z" fill="#806797"/>
<path d="M434.691 220.962C474.934 220.962 507.557 253.585 507.557 293.827H373.909C333.666 293.827 301.044 261.204 301.044 220.962H434.691Z" fill="#806797"/>
</mask>
<g mask="url(#mask3_3_38)">
<path d="M434.691 293.827C474.934 293.827 507.557 261.204 507.557 220.962H373.909C333.666 220.962 301.044 253.585 301.044 293.827H434.691Z" fill="#806797"/>
<path d="M434.691 293.827C474.934 293.827 507.557 261.204 507.557 220.962H373.909C333.666 220.962 301.044 253.585 301.044 293.827H434.691Z" fill="#806797"/>
<path d="M434.691 293.827C474.934 293.827 507.557 261.204 507.557 220.962H373.909C333.666 220.962 301.044 253.585 301.044 293.827H434.691Z" fill="#806797"/>
</g>
<mask id="mask4_3_38" style="mask-type:alpha" maskUnits="userSpaceOnUse" x="50" y="220" width="208" height="74">
<path d="M123.64 220.962C83.3972 220.962 50.7744 253.585 50.7744 293.827H184.422C224.665 293.827 257.287 261.204 257.287 220.962H123.64Z" fill="#806797"/>
<path d="M123.64 220.962C83.3972 220.962 50.7744 253.585 50.7744 293.827H184.422C224.665 293.827 257.287 261.204 257.287 220.962H123.64Z" fill="#806797"/>
<path d="M123.64 220.962C83.3972 220.962 50.7744 253.585 50.7744 293.827H184.422C224.665 293.827 257.287 261.204 257.287 220.962H123.64Z" fill="#806797"/>
</mask>
<g mask="url(#mask4_3_38)">
<path d="M123.64 293.827C83.3972 293.827 50.7744 261.204 50.7744 220.962H184.422C224.665 220.962 257.287 253.585 257.287 293.827H123.64Z" fill="#806797"/>
<path d="M123.64 293.827C83.3972 293.827 50.7744 261.204 50.7744 220.962H184.422C224.665 220.962 257.287 253.585 257.287 293.827H123.64Z" fill="#806797"/>
<path d="M123.64 293.827C83.3972 293.827 50.7744 261.204 50.7744 220.962H184.422C224.665 220.962 257.287 253.585 257.287 293.827H123.64Z" fill="#806797"/>
</g>
<mask id="mask5_3_38" style="mask-type:alpha" maskUnits="userSpaceOnUse" x="58" y="159" width="220" height="103">
<path d="M153.874 165.211C116.695 149.811 74.0715 167.467 58.6714 204.646L182.146 255.79C219.325 271.191 261.949 253.535 277.349 216.356L153.874 165.211Z" fill="#A17AA4"/>
<path d="M153.874 165.211C116.695 149.811 74.0715 167.467 58.6714 204.646L182.146 255.79C219.325 271.191 261.949 253.535 277.349 216.356L153.874 165.211Z" fill="#A17AA4"/>
<path d="M153.874 165.211C116.695 149.811 74.0715 167.467 58.6714 204.646L182.146 255.79C219.325 271.191 261.949 253.535 277.349 216.356L153.874 165.211Z" fill="#A17AA4"/>
</mask>
<g mask="url(#mask5_3_38)">
<path d="M125.99 232.53C88.811 217.13 71.1557 174.506 86.5558 137.327L210.03 188.472C247.209 203.872 264.865 246.496 249.465 283.675L125.99 232.53Z" fill="#A17AA4"/>
<path d="M125.99 232.53C88.811 217.13 71.1557 174.506 86.5558 137.327L210.03 188.472C247.209 203.872 264.865 246.496 249.465 283.675L125.99 232.53Z" fill="#A17AA4"/>
<path d="M125.99 232.53C88.811 217.13 71.1557 174.506 86.5558 137.327L210.03 188.472C247.209 203.872 264.865 246.496 249.465 283.675L125.99 232.53Z" fill="#A17AA4"/>
</g>
<mask id="mask6_3_38" style="mask-type:alpha" maskUnits="userSpaceOnUse" x="99" y="103" width="199" height="139">
<path d="M202.811 125.303C174.356 96.8473 128.22 96.8473 99.7643 125.303L194.268 219.806C222.723 248.262 268.859 248.262 297.315 219.806L202.811 125.303Z" fill="#BF90AF"/>
<path d="M202.811 125.303C174.356 96.8473 128.22 96.8473 99.7643 125.303L194.268 219.806C222.723 248.262 268.859 248.262 297.315 219.806L202.811 125.303Z" fill="#BF90AF"/>
<path d="M202.811 125.303C174.356 96.8473 128.22 96.8473 99.7643 125.303L194.268 219.806C222.723 248.262 268.859 248.262 297.315 219.806L202.811 125.303Z" fill="#BF90AF"/>
</mask>
<g mask="url(#mask6_3_38)">
<path d="M151.288 176.826C122.832 148.371 122.832 102.235 151.288 73.7794L245.791 168.283C274.247 196.738 274.247 242.874 245.791 271.33L151.288 176.826Z" fill="#BF90AF"/>
<path d="M151.288 176.826C122.832 148.371 122.832 102.235 151.288 73.7794L245.791 168.283C274.247 196.738 274.247 242.874 245.791 271.33L151.288 176.826Z" fill="#BF90AF"/>
<path d="M151.288 176.826C122.832 148.371 122.832 102.235 151.288 73.7794L245.791 168.283C274.247 196.738 274.247 242.874 245.791 271.33L151.288 176.826Z" fill="#BF90AF"/>
</g>
<mask id="mask7_3_38" style="mask-type:alpha" maskUnits="userSpaceOnUse" x="235" y="60" width="154" height="171">
<path d="M291.654 102.674C308.661 66.2021 352.015 50.4229 388.487 67.43L332.005 188.556C314.997 225.028 271.644 240.807 235.172 223.8L291.654 102.674Z" fill="#DAA7BC"/>
<path d="M291.654 102.674C308.661 66.2021 352.015 50.4229 388.487 67.43L332.005 188.556C314.997 225.028 271.644 240.807 235.172 223.8L291.654 102.674Z" fill="#DAA7BC"/>
<path d="M291.654 102.674C308.661 66.2021 352.015 50.4229 388.487 67.43L332.005 188.556C314.997 225.028 271.644 240.807 235.172 223.8L291.654 102.674Z" fill="#DAA7BC"/>
</mask>
<g mask="url(#mask7_3_38)">
<path d="M357.692 133.468C374.7 96.9963 358.92 53.643 322.448 36.6358L265.966 157.762C248.959 194.234 264.738 237.587 301.21 254.594L357.692 133.468Z" fill="#DAA7BC"/>
<path d="M357.692 133.468C374.7 96.9963 358.92 53.643 322.448 36.6358L265.966 157.762C248.959 194.234 264.738 237.587 301.21 254.594L357.692 133.468Z" fill="#DAA7BC"/>
<path d="M357.692 133.468C374.7 96.9963 358.92 53.643 322.448 36.6358L265.966 157.762C248.959 194.234 264.738 237.587 301.21 254.594L357.692 133.468Z" fill="#DAA7BC"/>
</g>
<mask id="mask8_3_38" style="mask-type:alpha" maskUnits="userSpaceOnUse" x="169" y="60" width="154" height="171">
<path d="M265.966 102.674C248.959 66.2021 205.606 50.4228 169.134 67.4299L225.616 188.556C242.623 225.028 285.976 240.807 322.448 223.8L265.966 102.674Z" fill="#DAA7BC"/>
<path d="M265.966 102.674C248.959 66.2021 205.606 50.4228 169.134 67.4299L225.616 188.556C242.623 225.028 285.976 240.807 322.448 223.8L265.966 102.674Z" fill="#DAA7BC"/>
<path d="M265.966 102.674C248.959 66.2021 205.606 50.4228 169.134 67.4299L225.616 188.556C242.623 225.028 285.976 240.807 322.448 223.8L265.966 102.674Z" fill="#DAA7BC"/>
</mask>
<g mask="url(#mask8_3_38)">
<path d="M199.928 133.468C182.921 96.9963 198.7 53.6429 235.172 36.6357L291.654 157.762C308.661 194.234 292.882 237.587 256.41 254.594L199.928 133.468Z" fill="#DAA7BC"/>
<path d="M199.928 133.468C182.921 96.9963 198.7 53.6429 235.172 36.6357L291.654 157.762C308.661 194.234 292.882 237.587 256.41 254.594L199.928 133.468Z" fill="#DAA7BC"/>
<path d="M199.928 133.468C182.921 96.9963 198.7 53.6429 235.172 36.6357L291.654 157.762C308.661 194.234 292.882 237.587 256.41 254.594L199.928 133.468Z" fill="#DAA7BC"/>
</g>
<path d="M279.148 135.41C279.148 95.1677 311.771 62.5449 352.013 62.5449V196.193C352.013 236.435 319.39 269.058 279.148 269.058V135.41Z" fill="#DAA7BC"/>
<path d="M279.148 135.41C279.148 95.1677 311.771 62.5449 352.013 62.5449V196.193C352.013 236.435 319.39 269.058 279.148 269.058V135.41Z" fill="#DAA7BC"/>
<path d="M279.148 135.41C279.148 95.1677 311.771 62.5449 352.013 62.5449V196.193C352.013 236.435 319.39 269.058 279.148 269.058V135.41Z" fill="#DAA7BC"/>
<path d="M279.148 135.41C279.148 95.1677 246.525 62.5449 206.283 62.5449V196.193C206.283 236.435 238.905 269.058 279.148 269.058V135.41Z" fill="#DAA7BC"/>
<path d="M279.148 135.41C279.148 95.1677 246.525 62.5449 206.283 62.5449V196.193C206.283 236.435 238.905 269.058 279.148 269.058V135.41Z" fill="#DAA7BC"/>
<path d="M279.148 135.41C279.148 95.1677 246.525 62.5449 206.283 62.5449V196.193C206.283 236.435 238.905 269.058 279.148 269.058V135.41Z" fill="#DAA7BC"/>
<path d="M330.293 145.583C345.693 108.404 388.317 90.7489 425.496 106.149L374.351 229.623C358.951 266.803 316.327 284.458 279.148 269.058L330.293 145.583Z" fill="#BF90AF"/>
<path d="M330.293 145.583C345.693 108.404 388.317 90.7489 425.496 106.149L374.351 229.623C358.951 266.803 316.327 284.458 279.148 269.058L330.293 145.583Z" fill="#BF90AF"/>
<path d="M330.293 145.583C345.693 108.404 388.317 90.7489 425.496 106.149L374.351 229.623C358.951 266.803 316.327 284.458 279.148 269.058L330.293 145.583Z" fill="#BF90AF"/>
<path d="M228.003 145.583C212.603 108.404 169.979 90.7489 132.8 106.149L183.945 229.624C199.345 266.803 241.969 284.458 279.148 269.058L228.003 145.583Z" fill="#BF90AF"/>
<path d="M228.003 145.583C212.603 108.404 169.979 90.7489 132.8 106.149L183.945 229.624C199.345 266.803 241.969 284.458 279.148 269.058L228.003 145.583Z" fill="#BF90AF"/>
<path d="M228.003 145.583C212.603 108.404 169.979 90.7489 132.8 106.149L183.945 229.624C199.345 266.803 241.969 284.458 279.148 269.058L228.003 145.583Z" fill="#BF90AF"/>
<path d="M373.651 174.555C402.107 146.099 448.242 146.099 476.698 174.555L382.195 269.058C353.739 297.514 307.603 297.513 279.148 269.058L373.651 174.555Z" fill="#A17AA4"/>
<path d="M373.651 174.555C402.107 146.099 448.242 146.099 476.698 174.555L382.195 269.058C353.739 297.514 307.603 297.513 279.148 269.058L373.651 174.555Z" fill="#A17AA4"/>
<path d="M373.651 174.555C402.107 146.099 448.242 146.099 476.698 174.555L382.195 269.058C353.739 297.514 307.603 297.513 279.148 269.058L373.651 174.555Z" fill="#A17AA4"/>
<path d="M184.645 174.555C156.189 146.099 110.053 146.099 81.5975 174.555L176.101 269.058C204.556 297.514 250.692 297.514 279.148 269.058L184.645 174.555Z" fill="#A17AA4"/>
<path d="M184.645 174.555C156.189 146.099 110.053 146.099 81.5975 174.555L176.101 269.058C204.556 297.514 250.692 297.514 279.148 269.058L184.645 174.555Z" fill="#A17AA4"/>
<path d="M184.645 174.555C156.189 146.099 110.053 146.099 81.5975 174.555L176.101 269.058C204.556 297.514 250.692 297.514 279.148 269.058L184.645 174.555Z" fill="#A17AA4"/>
<path d="M402.622 217.913C439.801 202.513 482.425 220.168 497.825 257.348L374.351 308.492C337.172 323.892 294.548 306.237 279.148 269.058L402.622 217.913Z" fill="#806797"/>
<path d="M402.622 217.913C439.801 202.513 482.425 220.168 497.825 257.348L374.351 308.492C337.172 323.892 294.548 306.237 279.148 269.058L402.622 217.913Z" fill="#806797"/>
<path d="M402.622 217.913C439.801 202.513 482.425 220.168 497.825 257.348L374.351 308.492C337.172 323.892 294.548 306.237 279.148 269.058L402.622 217.913Z" fill="#806797"/>
<path d="M155.673 217.913C118.494 202.513 75.8704 220.168 60.4703 257.348L183.945 308.492C221.124 323.892 263.748 306.237 279.148 269.058L155.673 217.913Z" fill="#806797"/>
<path d="M155.673 217.913C118.494 202.513 75.8704 220.168 60.4703 257.348L183.945 308.492C221.124 323.892 263.748 306.237 279.148 269.058L155.673 217.913Z" fill="#806797"/>
<path d="M155.673 217.913C118.494 202.513 75.8704 220.168 60.4703 257.348L183.945 308.492C221.124 323.892 263.748 306.237 279.148 269.058L155.673 217.913Z" fill="#806797"/>
<path d="M412.796 269.058C453.038 269.058 485.661 301.681 485.661 341.923H352.013C311.771 341.923 279.148 309.3 279.148 269.058H412.796Z" fill="#5C568A"/>
<path d="M412.796 269.058C453.038 269.058 485.661 301.681 485.661 341.923H352.013C311.771 341.923 279.148 309.3 279.148 269.058H412.796Z" fill="#5C568A"/>
<path d="M412.796 269.058C453.038 269.058 485.661 301.681 485.661 341.923H352.013C311.771 341.923 279.148 309.3 279.148 269.058H412.796Z" fill="#5C568A"/>
<path d="M145.5 269.058C105.258 269.058 72.6348 301.681 72.6348 341.923H206.283C246.525 341.923 279.148 309.3 279.148 269.058H145.5Z" fill="#5C568A"/>
<path d="M145.5 269.058C105.258 269.058 72.6348 301.681 72.6348 341.923H206.283C246.525 341.923 279.148 309.3 279.148 269.058H145.5Z" fill="#5C568A"/>
<path d="M145.5 269.058C105.258 269.058 72.6348 301.681 72.6348 341.923H206.283C246.525 341.923 279.148 309.3 279.148 269.058H145.5Z" fill="#5C568A"/>
<line x1="279.146" y1="129.916" x2="279.146" y2="269.171" stroke="#CC9BAF"/>
</svg>
